# xmcd
#
# Track frame offsets:
# 150
# 22545
# 42717
# 71855
# 82011
# 104884
# 123691
# 146745
# 163724
# 191703
# 209050
#
# Disc length: 3210 seconds
#
#
# Revision: 0
# Processed by: cddbd v1.5.2PL0 Copyright (c) Steve Scherf et al.
# Submitted via: Nero 7, 11, 10, 0 
#
DISCID=b10c880b
DTITLE=Mike Sponza - Featuring Duke Robillard and Herbie Goins
DYEAR=2003
DGENRE=Blues
TTITLE0=I Can't Get Out Of My Mind
TTITLE1=I Don't Like It
TTITLE2=Dangerous Mood
TTITLE3=The Road Is A Killer
TTITLE4=Something Goin' Wrong
TTITLE5=There's No Need
TTITLE6=Life
TTITLE7=Is This The Love
TTITLE8=How Many Times
TTITLE9=Small Gods
TTITLE10=As The Years Go Passing By
EXTD=
EXTT0=I Can't Get Out Of My Mind
EXTT1=I Don't Like It
EXTT2=Dangerous Mood
EXTT3=The Road Is A Killer
EXTT4=Something Goin' Wrong
EXTT5=There's No Need
EXTT6=Life
EXTT7=Is This The Love
EXTT8=How Many Times
EXTT9=Small Gods
EXTT10=As The Years Go Passing By
PLAYORDER=
